<svg xmlns="http://www.w3.org/2000/svg" viewBox="0 0 320 320"><defs><style>.a{fill:#d5d7e1;}.b{fill:#5a65fa;}.c{fill:#fffdf5;}.d{fill:#cfc9b8;}.e{fill:#f9f4e6;}.f{fill:#fff;}.g{fill:#f98f30;}.h{fill:#ffc110;}</style></defs><rect class="a" width="320" height="320"/><rect class="b" x="90" y="210" width="140" height="10"/><rect class="b" x="90" y="220" width="140" height="10"/><rect class="b" x="90" y="230" width="140" height="10"/><rect class="b" x="90" y="240" width="140" height="10"/><rect class="b" x="90" y="250" width="20" height="10"/><rect class="b" x="120" y="250" width="110" height="10"/><rect class="b" x="90" y="260" width="20" height="10"/><rect class="b" x="120" y="260" width="110" height="10"/><rect class="b" x="90" y="270" width="20" height="10"/><rect class="b" x="120" y="270" width="110" height="10"/><rect class="b" x="90" y="280" width="20" height="10"/><rect class="b" x="120" y="280" width="110" height="10"/><rect class="b" x="90" y="290" width="20" height="10"/><rect class="b" x="120" y="290" width="110" height="10"/><rect class="b" x="90" y="300" width="20" height="10"/><rect class="b" x="120" y="300" width="110" height="10"/><rect class="b" x="90" y="310" width="20" height="10"/><rect class="b" x="120" y="310" width="110" height="10"/><polygon class="c" points="90 210 90 220 90 230 90 240 90 250 90 260 90 270 90 280 90 290 90 300 90 310 90 320 110 320 110 310 110 300 110 290 110 280 110 270 110 260 110 250 120 250 120 260 120 270 120 280 120 290 120 300 120 310 120 320 230 320 230 310 230 300 230 290 230 280 230 270 230 260 230 250 230 240 230 230 230 220 230 210 90 210"/><polygon class="d" points="190 50 180 50 180 40 150 40 150 50 160 50 160 60 180 60 180 70 200 70 200 60 190 60 190 50"/><rect class="d" x="110" y="60" width="10" height="10"/><rect class="d" x="90" y="70" width="10" height="10"/><rect class="d" x="190" y="90" width="10" height="10"/><rect class="d" x="100" y="90" width="10" height="10"/><polygon class="d" points="240 110 240 100 230 100 230 110 230 120 240 120 240 130 250 130 250 120 250 110 240 110"/><polygon class="d" points="110 180 100 180 100 170 90 170 90 180 90 190 100 190 100 200 120 200 120 210 130 210 130 200 130 190 110 190 110 180"/><rect class="d" x="160" y="200" width="10" height="10"/><path class="e" d="M250,100V80H240V60H230V50H210V40H190V30H130V40H110V50H90V60H80V80H70v20H60v60H70v20H80v20H90v10h20v10h20v10h60V220h20V210h20V200h10V180h10V160h10V100ZM170,210H160V200h10Zm20-20H170V180h20Zm-80-10v10h20v20H120V200H100V190H90V170h10v10Zm90-80H190V90h10ZM150,40h30V50h10V60h10V70H180V60H160V50H150ZM120,60V70H110V60ZM90,70h10V80H90Zm10,20h10v10H100Zm150,30v10H240V120H230V100h10v10h10Z"/><polygon class="f" points="100 145 100 150 100 155 100 160 120 160 120 155 120 150 120 145 120 140 100 140 100 145"/><polygon class="f" points="170 140 170 145 170 150 170 155 170 160 190 160 190 155 190 150 190 145 190 140 170 140"/><rect x="170" y="180" width="20" height="10"/><polygon points="120 145 120 150 120 155 120 160 140 160 140 155 140 150 140 145 140 140 120 140 120 145"/><polygon points="190 140 190 145 190 150 190 155 190 160 210 160 210 155 210 150 210 145 210 140 190 140"/><path class="g" d="M160,120v50h60V110H160Zm50,0v40H170V120Z"/><polygon class="g" points="240 140 240 150 240 160 250 160 250 150 250 140 240 140"/><path class="h" d="M150,120V110H90v60h60V140h10V130H150Zm-10,20v20H100V120h40Z"/><rect class="h" x="220" y="130" width="30" height="10"/></svg>