<svg width="320" height="320" viewBox="0 0 320 320" xmlns="http://www.w3.org/2000/svg" shape-rendering="crispEdges"><rect width="100%" height="100%" fill="#e1d7d5" /><rect width="140" height="10" x="90" y="210" fill="#807f7e" /><rect width="140" height="10" x="90" y="220" fill="#807f7e" /><rect width="140" height="10" x="90" y="230" fill="#807f7e" /><rect width="140" height="10" x="90" y="240" fill="#807f7e" /><rect width="20" height="10" x="90" y="250" fill="#807f7e" /><rect width="110" height="10" x="120" y="250" fill="#807f7e" /><rect width="20" height="10" x="90" y="260" fill="#807f7e" /><rect width="110" height="10" x="120" y="260" fill="#807f7e" /><rect width="20" height="10" x="90" y="270" fill="#807f7e" /><rect width="110" height="10" x="120" y="270" fill="#807f7e" /><rect width="20" height="10" x="90" y="280" fill="#807f7e" /><rect width="110" height="10" x="120" y="280" fill="#807f7e" /><rect width="20" height="10" x="90" y="290" fill="#807f7e" /><rect width="110" height="10" x="120" y="290" fill="#807f7e" /><rect width="20" height="10" x="90" y="300" fill="#807f7e" /><rect width="110" height="10" x="120" y="300" fill="#807f7e" /><rect width="20" height="10" x="90" y="310" fill="#807f7e" /><rect width="110" height="10" x="120" y="310" fill="#807f7e" /><rect width="10" height="10" x="140" y="240" fill="#ffef16" /><rect width="20" height="10" x="160" y="240" fill="#ffef16" /><rect width="30" height="10" x="150" y="250" fill="#ffef16" /><rect width="10" height="10" x="180" y="250" fill="#fe500c" /><rect width="30" height="10" x="150" y="260" fill="#ffef16" /><rect width="20" height="10" x="150" y="40" fill="#4bea69" /><rect width="10" height="10" x="120" y="50" fill="#4bea69" /><rect width="20" height="10" x="160" y="50" fill="#4bea69" /><rect width="10" height="10" x="240" y="50" fill="#ffc110" /><rect width="20" height="10" x="130" y="60" fill="#4bea69" /><rect width="20" height="10" x="160" y="60" fill="#4bea69" /><rect width="20" height="10" x="220" y="60" fill="#ffc110" /><rect width="30" height="10" x="90" y="70" fill="#fdf8ff" /><rect width="50" height="10" x="130" y="70" fill="#4bea69" /><rect width="30" height="10" x="200" y="70" fill="#ffc110" /><rect width="30" height="10" x="60" y="80" fill="#4bea69" /><rect width="30" height="10" x="90" y="80" fill="#fdf8ff" /><rect width="70" height="10" x="120" y="80" fill="#4bea69" /><rect width="30" height="10" x="190" y="80" fill="#ffc110" /><rect width="10" height="10" x="220" y="80" fill="#fdf8ff" /><rect width="10" height="10" x="40" y="90" fill="#4bea69" /><rect width="30" height="10" x="60" y="90" fill="#4bea69" /><rect width="70" height="10" x="90" y="90" fill="#fdf8ff" /><rect width="10" height="10" x="160" y="90" fill="#4bea69" /><rect width="40" height="10" x="170" y="90" fill="#ffc110" /><rect width="20" height="10" x="210" y="90" fill="#fdf8ff" /><rect width="30" height="10" x="50" y="100" fill="#4bea69" /><rect width="10" height="10" x="80" y="100" fill="#ff638d" /><rect width="70" height="10" x="90" y="100" fill="#fdf8ff" /><rect width="40" height="10" x="160" y="100" fill="#ffc110" /><rect width="30" height="10" x="200" y="100" fill="#fdf8ff" /><rect width="10" height="10" x="60" y="110" fill="#4bea69" /><rect width="20" height="10" x="70" y="110" fill="#ff638d" /><rect width="70" height="10" x="90" y="110" fill="#fdf8ff" /><rect width="30" height="10" x="160" y="110" fill="#ffc110" /><rect width="40" height="10" x="190" y="110" fill="#fdf8ff" /><rect width="30" height="10" x="60" y="120" fill="#ff638d" /><rect width="70" height="10" x="90" y="120" fill="#fdf8ff" /><rect width="20" height="10" x="160" y="120" fill="#ffc110" /><rect width="50" height="10" x="180" y="120" fill="#fdf8ff" /><rect width="40" height="10" x="50" y="130" fill="#ff638d" /><rect width="70" height="10" x="90" y="130" fill="#fdf8ff" /><rect width="10" height="10" x="160" y="130" fill="#ffc110" /><rect width="60" height="10" x="170" y="130" fill="#fdf8ff" /><rect width="30" height="10" x="60" y="140" fill="#ff638d" /><rect width="140" height="10" x="90" y="140" fill="#fdf8ff" /><rect width="30" height="10" x="60" y="150" fill="#ff638d" /><rect width="140" height="10" x="90" y="150" fill="#fdf8ff" /><rect width="30" height="10" x="60" y="160" fill="#ff638d" /><rect width="180" height="10" x="90" y="160" fill="#feb9d5" /><rect width="20" height="10" x="50" y="170" fill="#ff638d" /><rect width="20" height="10" x="70" y="170" fill="#667af9" /><rect width="140" height="10" x="90" y="170" fill="#feb9d5" /><rect width="10" height="10" x="230" y="170" fill="#ff638d" /><rect width="10" height="10" x="240" y="170" fill="#feb9d5" /><rect width="10" height="10" x="250" y="170" fill="#ff638d" /><rect width="10" height="10" x="260" y="170" fill="#feb9d5" /><rect width="40" height="10" x="50" y="180" fill="#667af9" /><rect width="30" height="10" x="90" y="180" fill="#feb9d5" /><rect width="10" height="10" x="120" y="180" fill="#ff638d" /><rect width="10" height="10" x="130" y="180" fill="#fdf8ff" /><rect width="10" height="10" x="140" y="180" fill="#000000" /><rect width="10" height="10" x="150" y="180" fill="#fdf8ff" /><rect width="10" height="10" x="160" y="180" fill="#000000" /><rect width="10" height="10" x="170" y="180" fill="#fdf8ff" /><rect width="10" height="10" x="180" y="180" fill="#000000" /><rect width="10" height="10" x="190" y="180" fill="#fdf8ff" /><rect width="10" height="10" x="200" y="180" fill="#ff638d" /><rect width="60" height="10" x="210" y="180" fill="#feb9d5" /><rect width="30" height="10" x="60" y="190" fill="#667af9" /><rect width="180" height="10" x="90" y="190" fill="#feb9d5" /><rect width="30" height="10" x="60" y="200" fill="#667af9" /><rect width="180" height="10" x="90" y="200" fill="#feb9d5" /><rect width="20" height="10" x="70" y="210" fill="#667af9" /><rect width="10" height="10" x="80" y="220" fill="#667af9" /><rect width="60" height="10" x="100" y="110" fill="#ffef16" /><rect width="60" height="10" x="170" y="110" fill="#ffef16" /><rect width="10" height="10" x="100" y="120" fill="#ffef16" /><rect width="20" height="10" x="110" y="120" fill="#ffffff" /><rect width="20" height="10" x="130" y="120" fill="#000000" /><rect width="10" height="10" x="150" y="120" fill="#ffef16" /><rect width="10" height="10" x="170" y="120" fill="#ffef16" /><rect width="20" height="10" x="180" y="120" fill="#ffffff" /><rect width="20" height="10" x="200" y="120" fill="#000000" /><rect width="10" height="10" x="220" y="120" fill="#ffef16" /><rect width="40" height="10" x="70" y="130" fill="#ffef16" /><rect width="20" height="10" x="110" y="130" fill="#ffffff" /><rect width="20" height="10" x="130" y="130" fill="#000000" /><rect width="30" height="10" x="150" y="130" fill="#ffef16" /><rect width="20" height="10" x="180" y="130" fill="#ffffff" /><rect width="20" height="10" x="200" y="130" fill="#000000" /><rect width="10" height="10" x="220" y="130" fill="#ffef16" /><rect width="10" height="10" x="70" y="140" fill="#ffef16" /><rect width="10" height="10" x="100" y="140" fill="#ffef16" /><rect width="20" height="10" x="110" y="140" fill="#ffffff" /><rect width="20" height="10" x="130" y="140" fill="#000000" /><rect width="10" height="10" x="150" y="140" fill="#ffef16" /><rect width="10" height="10" x="170" y="140" fill="#ffef16" /><rect width="20" height="10" x="180" y="140" fill="#ffffff" /><rect width="20" height="10" x="200" y="140" fill="#000000" /><rect width="10" height="10" x="220" y="140" fill="#ffef16" /><rect width="10" height="10" x="70" y="150" fill="#ffef16" /><rect width="10" height="10" x="100" y="150" fill="#ffef16" /><rect width="20" height="10" x="110" y="150" fill="#ffffff" /><rect width="20" height="10" x="130" y="150" fill="#000000" /><rect width="10" height="10" x="150" y="150" fill="#ffef16" /><rect width="10" height="10" x="170" y="150" fill="#ffef16" /><rect width="20" height="10" x="180" y="150" fill="#ffffff" /><rect width="20" height="10" x="200" y="150" fill="#000000" /><rect width="10" height="10" x="220" y="150" fill="#ffef16" /><rect width="60" height="10" x="100" y="160" fill="#ffef16" /><rect width="60" height="10" x="170" y="160" fill="#ffef16" /><rect width="160" height="10" x="80" y="80" fill="#E11833"/><rect width="120" height="10" x="90" y="60" fill="#E11833"/><rect width="100" height="10" x="100" y="50" fill="#E11833"/><rect width="100" height="10" x="100" y="40" fill="#E11833"/><rect width="130" height="10" x="80" y="70" fill="#BD2D24"/><rect width="50" height="10" x="140" y="70" fill="#EED811"/><rect width="10" height="10" x="140" y="60" fill="#EED811"/><rect width="10" height="10" x="150" y="50" fill="#EED811"/><rect width="10" height="10" x="160" y="60" fill="#EED811"/><rect width="10" height="10" x="170" y="50" fill="#EED811"/><rect width="10" height="10" x="180" y="60" fill="#EED811"/><path d="M230 210H90V250H230V210Z" fill="#1F1D29"/><path d="M230 250H120V260H230V250Z" fill="#1F1D29"/><path d="M110 290H90V300H110V290Z" fill="#1F1D29"/><path d="M110 310H90V320H110V310Z" fill="#1F1D29"/><path d="M230 260H120V320H230V260Z" fill="#1F1D29"/><path d="M230 210H210V220H230V210Z" fill="black"/><path d="M200 210H170V230H200V210Z" fill="black"/><path d="M120 220H90V240H120V220Z" fill="black"/><path d="M160 210H130V240H160V210Z" fill="black"/><path d="M190 240H160V250H190V240Z" fill="black"/><path d="M190 250H160V260H190V250Z" fill="black"/><path d="M230 230H200V260H230V230Z" fill="black"/><path d="M110 250H90V290H110V250Z" fill="black"/><path d="M190 260H160V270H190V260Z" fill="black"/><path d="M150 250H120V280H150V250Z" fill="black"/><path d="M220 270H190V300H220V270Z" fill="black"/><path d="M110 300H90V310H110V300Z" fill="black"/><path d="M180 280H150V310H180V280Z" fill="black"/><path d="M230 300H220V320H230V300Z" fill="black"/><path d="M100 310H90V320H100V310Z" fill="black"/><path d="M140 290H120V320H140V290Z" fill="black"/><path d="M210 310H180V320H210V310Z" fill="black"/><path d="M192 243H182V253H192V243Z" fill="#E6E6E6"/><path d="M187 263H177V273H187V263Z" fill="#E6E6E6"/><path d="M182 283H172V293H182V283Z" fill="#E6E6E6"/><path d="M172 243H162V253H172V243Z" fill="#E6E6E6"/><path d="M167 263H157V273H167V263Z" fill="#E6E6E6"/><path d="M162 283H152V293H162V283Z" fill="#E6E6E6"/><path d="M202 253H147V263H202V253Z" fill="#E6E6E6"/><path d="M197 273H142V283H197V273Z" fill="#E6E6E6"/><path d="M195 240H185V250H195V240Z" fill="white"/><path d="M190 260H180V270H190V260Z" fill="white"/><path d="M185 280H175V290H185V280Z" fill="white"/><path d="M175 240H165V250H175V240Z" fill="white"/><path d="M170 260H160V273H170V260Z" fill="white"/><path d="M165 280H155V290H165V280Z" fill="white"/><path d="M205 250H150V260H205V250Z" fill="white"/><path d="M200 270H145V280H200V270Z" fill="white"/></svg>