<svg xmlns="http://www.w3.org/2000/svg" viewBox="0 0 32 32" shape-rendering="crispEdges" width="256" height="256">
        <rect width="100%" height="100%" fill="#E1D7D5" />
        <rect width="23" height="1" x="5" y="6" fill="#FFFFFF" /><rect width="1" height="1" x="5" y="7" fill="#FFFFFF" /><rect width="10" height="1" x="6" y="7" fill="#4DAF50" /><rect width="1" height="1" x="16" y="7" fill="#FFFFFF" /><rect width="10" height="1" x="17" y="7" fill="#4DAF50" /><rect width="1" height="1" x="27" y="7" fill="#FFFFFF" /><rect width="1" height="1" x="5" y="8" fill="#FFFFFF" /><rect width="10" height="1" x="6" y="8" fill="#4DAF50" /><rect width="1" height="1" x="16" y="8" fill="#FFFFFF" /><rect width="10" height="1" x="17" y="8" fill="#4DAF50" /><rect width="1" height="1" x="27" y="8" fill="#FFFFFF" /><rect width="5" height="1" x="5" y="9" fill="#FFFFFF" /><rect width="6" height="1" x="10" y="9" fill="#4DAF50" /><rect width="1" height="1" x="16" y="9" fill="#FFFFFF" /><rect width="6" height="1" x="17" y="9" fill="#4DAF50" /><rect width="5" height="1" x="23" y="9" fill="#FFFFFF" /><rect width="1" height="1" x="5" y="10" fill="#FFFFFF" /><rect width="3" height="1" x="6" y="10" fill="#4DAF50" /><rect width="1" height="1" x="9" y="10" fill="#FFFFFF" /><rect width="6" height="1" x="10" y="10" fill="#4DAF50" /><rect width="1" height="1" x="16" y="10" fill="#FFFFFF" /><rect width="6" height="1" x="17" y="10" fill="#4DAF50" /><rect width="1" height="1" x="23" y="10" fill="#FFFFFF" /><rect width="3" height="1" x="24" y="10" fill="#4DAF50" /><rect width="1" height="1" x="27" y="10" fill="#FFFFFF" /><rect width="1" height="1" x="5" y="11" fill="#FFFFFF" /><rect width="3" height="1" x="6" y="11" fill="#4DAF50" /><rect width="1" height="1" x="9" y="11" fill="#FFFFFF" /><rect width="5" height="1" x="10" y="11" fill="#4DAF50" /><rect width="3" height="1" x="15" y="11" fill="#FFFFFF" /><rect width="5" height="1" x="18" y="11" fill="#4DAF50" /><rect width="1" height="1" x="23" y="11" fill="#FFFFFF" /><rect width="3" height="1" x="24" y="11" fill="#4DAF50" /><rect width="1" height="1" x="27" y="11" fill="#FFFFFF" /><rect width="3" height="1" x="5" y="12" fill="#FFFFFF" /><rect width="1" height="1" x="8" y="12" fill="#4DAF50" /><rect width="1" height="1" x="9" y="12" fill="#FFFFFF" /><rect width="4" height="1" x="10" y="12" fill="#4DAF50" /><rect width="1" height="1" x="14" y="12" fill="#FFFFFF" /><rect width="1" height="1" x="15" y="12" fill="#4DAF50" /><rect width="1" height="1" x="16" y="12" fill="#FFFFFF" /><rect width="1" height="1" x="17" y="12" fill="#4DAF50" /><rect width="1" height="1" x="18" y="12" fill="#FFFFFF" /><rect width="4" height="1" x="19" y="12" fill="#4DAF50" /><rect width="1" height="1" x="23" y="12" fill="#FFFFFF" /><rect width="1" height="1" x="24" y="12" fill="#4DAF50" /><rect width="3" height="1" x="25" y="12" fill="#FFFFFF" /><rect width="1" height="1" x="5" y="13" fill="#FFFFFF" /><rect width="1" height="1" x="6" y="13" fill="#4DAF50" /><rect width="1" height="1" x="7" y="13" fill="#FFFFFF" /><rect width="1" height="1" x="8" y="13" fill="#4DAF50" /><rect width="1" height="1" x="9" y="13" fill="#FFFFFF" /><rect width="4" height="1" x="10" y="13" fill="#4DAF50" /><rect width="1" height="1" x="14" y="13" fill="#FFFFFF" /><rect width="1" height="1" x="15" y="13" fill="#4DAF50" /><rect width="1" height="1" x="16" y="13" fill="#FFFFFF" /><rect width="1" height="1" x="17" y="13" fill="#4DAF50" /><rect width="1" height="1" x="18" y="13" fill="#FFFFFF" /><rect width="4" height="1" x="19" y="13" fill="#4DAF50" /><rect width="1" height="1" x="23" y="13" fill="#FFFFFF" /><rect width="1" height="1" x="24" y="13" fill="#4DAF50" /><rect width="1" height="1" x="25" y="13" fill="#FFFFFF" /><rect width="1" height="1" x="26" y="13" fill="#4DAF50" /><rect width="1" height="1" x="27" y="13" fill="#FFFFFF" /><rect width="3" height="1" x="5" y="14" fill="#FFFFFF" /><rect width="1" height="1" x="8" y="14" fill="#4DAF50" /><rect width="1" height="1" x="9" y="14" fill="#FFFFFF" /><rect width="4" height="1" x="10" y="14" fill="#4DAF50" /><rect width="1" height="1" x="14" y="14" fill="#FFFFFF" /><rect width="1" height="1" x="15" y="14" fill="#4DAF50" /><rect width="1" height="1" x="16" y="14" fill="#FFFFFF" /><rect width="1" height="1" x="17" y="14" fill="#4DAF50" /><rect width="1" height="1" x="18" y="14" fill="#FFFFFF" /><rect width="4" height="1" x="19" y="14" fill="#4DAF50" /><rect width="1" height="1" x="23" y="14" fill="#FFFFFF" /><rect width="1" height="1" x="24" y="14" fill="#4DAF50" /><rect width="3" height="1" x="25" y="14" fill="#FFFFFF" /><rect width="1" height="1" x="5" y="15" fill="#FFFFFF" /><rect width="3" height="1" x="6" y="15" fill="#4DAF50" /><rect width="1" height="1" x="9" y="15" fill="#FFFFFF" /><rect width="5" height="1" x="10" y="15" fill="#4DAF50" /><rect width="3" height="1" x="15" y="15" fill="#FFFFFF" /><rect width="5" height="1" x="18" y="15" fill="#4DAF50" /><rect width="1" height="1" x="23" y="15" fill="#FFFFFF" /><rect width="3" height="1" x="24" y="15" fill="#4DAF50" /><rect width="1" height="1" x="27" y="15" fill="#FFFFFF" /><rect width="1" height="1" x="5" y="16" fill="#FFFFFF" /><rect width="3" height="1" x="6" y="16" fill="#4DAF50" /><rect width="1" height="1" x="9" y="16" fill="#FFFFFF" /><rect width="6" height="1" x="10" y="16" fill="#4DAF50" /><rect width="1" height="1" x="16" y="16" fill="#FFFFFF" /><rect width="6" height="1" x="17" y="16" fill="#4DAF50" /><rect width="1" height="1" x="23" y="16" fill="#FFFFFF" /><rect width="3" height="1" x="24" y="16" fill="#4DAF50" /><rect width="1" height="1" x="27" y="16" fill="#FFFFFF" /><rect width="5" height="1" x="5" y="17" fill="#FFFFFF" /><rect width="6" height="1" x="10" y="17" fill="#4DAF50" /><rect width="1" height="1" x="16" y="17" fill="#FFFFFF" /><rect width="6" height="1" x="17" y="17" fill="#4DAF50" /><rect width="5" height="1" x="23" y="17" fill="#FFFFFF" /><rect width="1" height="1" x="5" y="18" fill="#FFFFFF" /><rect width="10" height="1" x="6" y="18" fill="#4DAF50" /><rect width="1" height="1" x="16" y="18" fill="#FFFFFF" /><rect width="10" height="1" x="17" y="18" fill="#4DAF50" /><rect width="1" height="1" x="27" y="18" fill="#FFFFFF" /><rect width="1" height="1" x="5" y="19" fill="#FFFFFF" /><rect width="10" height="1" x="6" y="19" fill="#4DAF50" /><rect width="1" height="1" x="16" y="19" fill="#FFFFFF" /><rect width="10" height="1" x="17" y="19" fill="#4DAF50" /><rect width="1" height="1" x="27" y="19" fill="#FFFFFF" /><rect width="23" height="1" x="5" y="20" fill="#FFFFFF" />
        <rect width="5" height="1" x="9" y="21" fill="#FEEA3B" /><rect width="5" height="1" x="14" y="21" fill="#4DAF50" /><rect width="4" height="1" x="19" y="21" fill="#FEEA3B" /><rect width="14" height="1" x="9" y="22" fill="#FEEA3B" /><rect width="10" height="1" x="9" y="23" fill="#FEEA3B" /><rect width="1" height="1" x="19" y="23" fill="#2196F2" /><rect width="1" height="1" x="20" y="23" fill="#FFFFFF" /><rect width="1" height="1" x="21" y="23" fill="#2196F2" /><rect width="1" height="1" x="22" y="23" fill="#FEEA3B" /><rect width="9" height="1" x="9" y="24" fill="#FEEA3B" /><rect width="1" height="1" x="18" y="24" fill="#4DAF50" /><rect width="3" height="1" x="19" y="24" fill="#FFFFFF" /><rect width="1" height="1" x="22" y="24" fill="#4DAF50" /><rect width="2" height="1" x="9" y="25" fill="#FEEA3B" /><rect width="7" height="1" x="12" y="25" fill="#FEEA3B" /><rect width="1" height="1" x="19" y="25" fill="#2196F2" /><rect width="1" height="1" x="20" y="25" fill="#FFFFFF" /><rect width="1" height="1" x="21" y="25" fill="#2196F2" /><rect width="1" height="1" x="22" y="25" fill="#FEEA3B" /><rect width="2" height="1" x="9" y="26" fill="#FEEA3B" /><rect width="8" height="1" x="12" y="26" fill="#FEEA3B" /><rect width="1" height="1" x="20" y="26" fill="#4DAF50" /><rect width="2" height="1" x="21" y="26" fill="#FEEA3B" /><rect width="2" height="1" x="9" y="27" fill="#FEEA3B" /><rect width="8" height="1" x="12" y="27" fill="#FEEA3B" /><rect width="1" height="1" x="20" y="27" fill="#4DAF50" /><rect width="2" height="1" x="21" y="27" fill="#FEEA3B" /><rect width="2" height="1" x="9" y="28" fill="#FEEA3B" /><rect width="11" height="1" x="12" y="28" fill="#FEEA3B" /><rect width="2" height="1" x="9" y="29" fill="#FEEA3B" /><rect width="11" height="1" x="12" y="29" fill="#FEEA3B" /><rect width="2" height="1" x="9" y="30" fill="#FEEA3B" /><rect width="11" height="1" x="12" y="30" fill="#FEEA3B" /><rect width="2" height="1" x="9" y="31" fill="#FEEA3B" /><rect width="11" height="1" x="12" y="31" fill="#FEEA3B" />
        <rect width="6" height="1" x="10" y="11" fill="#FE500C" /><rect width="6" height="1" x="17" y="11" fill="#FE500C" /><rect width="1" height="1" x="10" y="12" fill="#FE500C" /><rect width="2" height="1" x="11" y="12" fill="#FFFFFF" /><rect width="2" height="1" x="13" y="12" fill="#000001" /><rect width="1" height="1" x="15" y="12" fill="#FE500C" /><rect width="1" height="1" x="17" y="12" fill="#FE500C" /><rect width="2" height="1" x="18" y="12" fill="#FFFFFF" /><rect width="2" height="1" x="20" y="12" fill="#000001" /><rect width="1" height="1" x="22" y="12" fill="#FE500C" /><rect width="4" height="1" x="7" y="13" fill="#FE500C" /><rect width="2" height="1" x="11" y="13" fill="#FFFFFF" /><rect width="2" height="1" x="13" y="13" fill="#000001" /><rect width="3" height="1" x="15" y="13" fill="#FE500C" /><rect width="2" height="1" x="18" y="13" fill="#FFFFFF" /><rect width="2" height="1" x="20" y="13" fill="#000001" /><rect width="1" height="1" x="22" y="13" fill="#FE500C" /><rect width="1" height="1" x="7" y="14" fill="#FE500C" /><rect width="1" height="1" x="10" y="14" fill="#FE500C" /><rect width="2" height="1" x="11" y="14" fill="#FFFFFF" /><rect width="2" height="1" x="13" y="14" fill="#000001" /><rect width="1" height="1" x="15" y="14" fill="#FE500C" /><rect width="1" height="1" x="17" y="14" fill="#FE500C" /><rect width="2" height="1" x="18" y="14" fill="#FFFFFF" /><rect width="2" height="1" x="20" y="14" fill="#000001" /><rect width="1" height="1" x="22" y="14" fill="#FE500C" /><rect width="1" height="1" x="7" y="15" fill="#FE500C" /><rect width="1" height="1" x="10" y="15" fill="#FE500C" /><rect width="2" height="1" x="11" y="15" fill="#FFFFFF" /><rect width="2" height="1" x="13" y="15" fill="#000001" /><rect width="1" height="1" x="15" y="15" fill="#FE500C" /><rect width="1" height="1" x="17" y="15" fill="#FE500C" /><rect width="2" height="1" x="18" y="15" fill="#FFFFFF" /><rect width="2" height="1" x="20" y="15" fill="#000001" /><rect width="1" height="1" x="22" y="15" fill="#FE500C" /><rect width="6" height="1" x="10" y="16" fill="#FE500C" /><rect width="6" height="1" x="17" y="16" fill="#FE500C" />
        </svg>