<svg width="320" height="320" viewBox="0 0 320 320" xmlns="http://www.w3.org/2000/svg" shape-rendering="crispEdges"><rect width="100%" height="100%" fill="#d5d7e1" /><rect width="100" height="10" x="110" y="260" fill="#9f21a0" /><rect width="100" height="10" x="110" y="270" fill="#9f21a0" /><rect width="20" height="10" x="110" y="280" fill="#9f21a0" /><rect width="70" height="10" x="140" y="280" fill="#9f21a0" /><rect width="20" height="10" x="110" y="290" fill="#9f21a0" /><rect width="70" height="10" x="140" y="290" fill="#9f21a0" /><rect width="20" height="10" x="110" y="300" fill="#9f21a0" /><rect width="70" height="10" x="140" y="300" fill="#9f21a0" /><rect width="20" height="10" x="110" y="310" fill="#9f21a0" /><rect width="70" height="10" x="140" y="310" fill="#9f21a0" /><rect width="10" height="10" x="160" y="270" fill="#abf131" /><rect width="20" height="10" x="180" y="270" fill="#fff0be" /><rect width="20" height="10" x="150" y="280" fill="#abf131" /><rect width="20" height="10" x="180" y="280" fill="#fff0be" /><rect width="20" height="10" x="150" y="300" fill="#fff0be" /><rect width="10" height="10" x="180" y="300" fill="#abf131" /><rect width="20" height="10" x="150" y="70" fill="#ffc110" /><rect width="20" height="10" x="150" y="80" fill="#ffc110" /><rect width="40" height="10" x="140" y="90" fill="#ffc110" /><rect width="40" height="10" x="140" y="100" fill="#ffc110" /><rect width="60" height="10" x="130" y="110" fill="#d08b11" /><rect width="60" height="10" x="130" y="120" fill="#000000" /><rect width="20" height="10" x="90" y="130" fill="#ffc110" /><rect width="20" height="10" x="110" y="130" fill="#d08b11" /><rect width="20" height="10" x="130" y="130" fill="#ffc110" /><rect width="20" height="10" x="150" y="130" fill="#d08b11" /><rect width="20" height="10" x="170" y="130" fill="#ffc110" /><rect width="20" height="10" x="190" y="130" fill="#d08b11" /><rect width="20" height="10" x="210" y="130" fill="#ffc110" /><rect width="140" height="10" x="90" y="140" fill="#000000" /><rect width="160" height="10" x="80" y="150" fill="#ffc925" /><rect width="160" height="10" x="80" y="160" fill="#ffc925" /><rect width="160" height="10" x="80" y="170" fill="#ffc925" /><rect width="160" height="10" x="80" y="180" fill="#ffc925" /><rect width="160" height="10" x="80" y="190" fill="#ffc925" /><rect width="160" height="10" x="80" y="200" fill="#ffc925" /><rect width="160" height="10" x="80" y="210" fill="#ffc925" /><rect width="160" height="10" x="80" y="220" fill="#ffc925" /><rect width="20" height="10" x="80" y="230" fill="#ffc925" /><rect width="30" height="10" x="100" y="230" fill="#d08b11" /><rect width="110" height="10" x="130" y="230" fill="#ffc925" /><rect width="40" height="10" x="80" y="240" fill="#ffc925" /><rect width="40" height="10" x="120" y="240" fill="#d08b11" /><rect width="80" height="10" x="160" y="240" fill="#ffc925" /><rect width="160" height="10" x="80" y="250" fill="#ffc925" /><rect width="80" height="10" x="80" y="140" fill="#000000" /><rect width="80" height="10" x="170" y="140" fill="#000000" /><rect width="60" height="10" x="80" y="150" fill="#000000" /><rect width="10" height="10" x="140" y="150" fill="#ffffff" /><rect width="10" height="10" x="150" y="150" fill="#000000" /><rect width="60" height="10" x="170" y="150" fill="#000000" /><rect width="10" height="10" x="230" y="150" fill="#ffffff" /><rect width="10" height="10" x="240" y="150" fill="#000000" /><rect width="60" height="10" x="80" y="160" fill="#000000" /><rect width="10" height="10" x="140" y="160" fill="#ffffff" /><rect width="10" height="10" x="150" y="160" fill="#000000" /><rect width="60" height="10" x="170" y="160" fill="#000000" /><rect width="10" height="10" x="230" y="160" fill="#ffffff" /><rect width="10" height="10" x="240" y="160" fill="#000000" /><rect width="90" height="10" x="50" y="170" fill="#000000" /><rect width="10" height="10" x="140" y="170" fill="#ffffff" /><rect width="80" height="10" x="150" y="170" fill="#000000" /><rect width="10" height="10" x="230" y="170" fill="#ffffff" /><rect width="10" height="10" x="240" y="170" fill="#000000" /><rect width="10" height="10" x="50" y="180" fill="#000000" /><rect width="80" height="10" x="80" y="180" fill="#000000" /><rect width="80" height="10" x="170" y="180" fill="#000000" /><rect width="10" height="10" x="50" y="190" fill="#000000" /><rect width="80" height="10" x="80" y="190" fill="#000000" /><rect width="80" height="10" x="170" y="190" fill="#000000" /><rect width="80" height="10" x="80" y="200" fill="#000000" /><rect width="80" height="10" x="170" y="200" fill="#000000" /><rect width="80" height="10" x="80" y="210" fill="#000000" /><rect width="80" height="10" x="170" y="210" fill="#000000" /></svg>