<svg viewBox="0 0 500 500" xmlns="http://www.w3.org/2000/svg" xmlns:xlink="http://www.w3.org/1999/xlink"><rect width="500" height="500" fill="#fff" /><svg viewBox="0 0 180 180" x="40" y="40" width="420" height="420"><use class="soup0" xlink:href="#_can" /><svg viewBox="0 0 320 320" x="60" y="90" width="60" height="60"><svg width="320" height="320" viewBox="0 0 320 320" xmlns="http://www.w3.org/2000/svg" shape-rendering="crispEdges"><rect width="100%"                              /><rect width="140" height="10" x="90" y="210" fill="#80a72d" /><rect width="140" height="10" x="90" y="220" fill="#80a72d" /><rect width="140" height="10" x="90" y="230" fill="#80a72d" /><rect width="140" height="10" x="90" y="240" fill="#80a72d" /><rect width="20" height="10" x="90" y="250" fill="#80a72d" /><rect width="110" height="10" x="120" y="250" fill="#80a72d" /><rect width="20" height="10" x="90" y="260" fill="#80a72d" /><rect width="110" height="10" x="120" y="260" fill="#80a72d" /><rect width="20" height="10" x="90" y="270" fill="#80a72d" /><rect width="110" height="10" x="120" y="270" fill="#80a72d" /><rect width="20" height="10" x="90" y="280" fill="#80a72d" /><rect width="110" height="10" x="120" y="280" fill="#80a72d" /><rect width="20" height="10" x="90" y="290" fill="#80a72d" /><rect width="110" height="10" x="120" y="290" fill="#80a72d" /><rect width="20" height="10" x="90" y="300" fill="#80a72d" /><rect width="110" height="10" x="120" y="300" fill="#80a72d" /><rect width="20" height="10" x="90" y="310" fill="#80a72d" /><rect width="110" height="10" x="120" y="310" fill="#80a72d" /><rect width="10" height="10" x="160" y="220" fill="#eab118" /><rect width="10" height="10" x="150" y="230" fill="#eab118" /><rect width="10" height="10" x="160" y="230" fill="#db8323" /><rect width="10" height="10" x="170" y="230" fill="#eab118" /><rect width="10" height="10" x="160" y="240" fill="#eab118" /><rect width="30" height="10" x="150" y="250" fill="#eab118" /><rect width="10" height="10" x="140" y="260" fill="#eab118" /><rect width="30" height="10" x="150" y="260" fill="#db8323" /><rect width="10" height="10" x="180" y="260" fill="#eab118" /><rect width="20" height="10" x="140" y="270" fill="#eab118" /><rect width="20" height="10" x="160" y="270" fill="#db8323" /><rect width="10" height="10" x="180" y="270" fill="#eab118" /><rect width="10" height="10" x="140" y="280" fill="#eab118" /><rect width="30" height="10" x="150" y="280" fill="#db8323" /><rect width="10" height="10" x="180" y="280" fill="#eab118" /><rect width="30" height="10" x="150" y="290" fill="#eab118" /><rect width="30" height="10" x="140" y="10" fill="#068940" /><rect width="10" height="10" x="90" y="20" fill="#068940" /><rect width="70" height="10" x="120" y="20" fill="#068940" /><rect width="110" height="10" x="100" y="30" fill="#068940" /><rect width="10" height="10" x="100" y="40" fill="#068940" /><rect width="70" height="10" x="120" y="40" fill="#068940" /><rect width="10" height="10" x="110" y="50" fill="#068940" /><rect width="30" height="10" x="140" y="50" fill="#068940" /><rect width="10" height="10" x="110" y="60" fill="#068940" /><rect width="10" height="10" x="150" y="60" fill="#068940" /><rect width="10" height="10" x="120" y="70" fill="#068940" /><rect width="10" height="10" x="160" y="70" fill="#068940" /><rect width="10" height="10" x="120" y="80" fill="#068940" /><rect width="10" height="10" x="170" y="80" fill="#068940" /><rect width="30" height="10" x="90" y="90" fill="#d22209" /><rect width="10" height="10" x="120" y="90" fill="#068940" /><rect width="10" height="10" x="130" y="90" fill="#d22209" /><rect width="10" height="10" x="180" y="90" fill="#068940" /><rect width="40" height="10" x="190" y="90" fill="#ff1a0b" /><rect width="90" height="10" x="70" y="100" fill="#d22209" /><rect width="90" height="10" x="160" y="100" fill="#ff1a0b" /><rect width="90" height="10" x="60" y="110" fill="#d22209" /><rect width="110" height="10" x="150" y="110" fill="#ff1a0b" /><rect width="90" height="10" x="60" y="120" fill="#d22209" /><rect width="90" height="10" x="150" y="120" fill="#ff1a0b" /><rect width="10" height="10" x="240" y="120" fill="#ffffff" /><rect width="10" height="10" x="250" y="120" fill="#ff1a0b" /><rect width="90" height="10" x="50" y="130" fill="#d22209" /><rect width="130" height="10" x="140" y="130" fill="#ff1a0b" /><rect width="90" height="10" x="50" y="140" fill="#d22209" /><rect width="130" height="10" x="140" y="140" fill="#ff1a0b" /><rect width="90" height="10" x="50" y="150" fill="#d22209" /><rect width="130" height="10" x="140" y="150" fill="#ff1a0b" /><rect width="90" height="10" x="50" y="160" fill="#d22209" /><rect width="130" height="10" x="140" y="160" fill="#ff1a0b" /><rect width="90" height="10" x="50" y="170" fill="#d22209" /><rect width="130" height="10" x="140" y="170" fill="#ff1a0b" /><rect width="90" height="10" x="60" y="180" fill="#d22209" /><rect width="60" height="10" x="150" y="180" fill="#ff1a0b" /><rect width="30" height="10" x="210" y="180" fill="#d22209" /><rect width="20" height="10" x="240" y="180" fill="#ff1a0b" /><rect width="90" height="10" x="60" y="190" fill="#d22209" /><rect width="50" height="10" x="150" y="190" fill="#ff1a0b" /><rect width="10" height="10" x="200" y="190" fill="#d22209" /><rect width="20" height="10" x="210" y="190" fill="#ffffff" /><rect width="30" height="10" x="230" y="190" fill="#ff1a0b" /><rect width="90" height="10" x="70" y="200" fill="#d22209" /><rect width="90" height="10" x="160" y="200" fill="#ff1a0b" /><rect width="50" height="10" x="90" y="210" fill="#d22209" /><rect width="50" height="10" x="180" y="210" fill="#ff1a0b" /><rect width="60" height="10" x="100" y="110" fill="#d19a54" /><rect width="60" height="10" x="170" y="110" fill="#d19a54" /><rect width="10" height="10" x="100" y="120" fill="#d19a54" /><rect width="20" height="10" x="110" y="120" fill="#ffffff" /><rect width="20" height="10" x="130" y="120" fill="#000000" /><rect width="10" height="10" x="150" y="120" fill="#d19a54" /><rect width="10" height="10" x="170" y="120" fill="#d19a54" /><rect width="20" height="10" x="180" y="120" fill="#ffffff" /><rect width="20" height="10" x="200" y="120" fill="#000000" /><rect width="10" height="10" x="220" y="120" fill="#d19a54" /><rect width="40" height="10" x="70" y="130" fill="#d19a54" /><rect width="20" height="10" x="110" y="130" fill="#ffffff" /><rect width="20" height="10" x="130" y="130" fill="#000000" /><rect width="30" height="10" x="150" y="130" fill="#d19a54" /><rect width="20" height="10" x="180" y="130" fill="#ffffff" /><rect width="20" height="10" x="200" y="130" fill="#000000" /><rect width="10" height="10" x="220" y="130" fill="#d19a54" /><rect width="10" height="10" x="70" y="140" fill="#d19a54" /><rect width="10" height="10" x="100" y="140" fill="#d19a54" /><rect width="20" height="10" x="110" y="140" fill="#ffffff" /><rect width="20" height="10" x="130" y="140" fill="#000000" /><rect width="10" height="10" x="150" y="140" fill="#d19a54" /><rect width="10" height="10" x="170" y="140" fill="#d19a54" /><rect width="20" height="10" x="180" y="140" fill="#ffffff" /><rect width="20" height="10" x="200" y="140" fill="#000000" /><rect width="10" height="10" x="220" y="140" fill="#d19a54" /><rect width="10" height="10" x="70" y="150" fill="#d19a54" /><rect width="10" height="10" x="100" y="150" fill="#d19a54" /><rect width="20" height="10" x="110" y="150" fill="#ffffff" /><rect width="20" height="10" x="130" y="150" fill="#000000" /><rect width="10" height="10" x="150" y="150" fill="#d19a54" /><rect width="10" height="10" x="170" y="150" fill="#d19a54" /><rect width="20" height="10" x="180" y="150" fill="#ffffff" /><rect width="20" height="10" x="200" y="150" fill="#000000" /><rect width="10" height="10" x="220" y="150" fill="#d19a54" /><rect width="60" height="10" x="100" y="160" fill="#d19a54" /><rect width="60" height="10" x="170" y="160" fill="#d19a54" /></svg></svg></svg><defs><svg id="_can" viewBox="0 0 54 91" xmlns="http://www.w3.org/2000/svg" xmlns:xlink="http://www.w3.org/1999/xlink" fill-rule="evenodd" clip-rule="evenodd" stroke-linecap="round" stroke-linejoin="round" stroke-miterlimit="1.5"><path d="M26.802 72.29c12.219 0 23.294.87 26.285 5.026.74 1.03.43 3.312.43 4.14 0 5.09-12.125 8.937-26.715 8.937S1.46 86.221.366 81.513c-.416-1.792.052-3.47.585-3.88 2.923-2.249 13.35-5.343 25.851-5.343z"/><path d="M26.852 72.787c12.038 0 22.961.968 25.907 4.847.73.961.468 2.798.468 3.57 0 4.751-11.946 8.662-26.321 8.662-14.374 0-24.967-4.215-26.045-8.608-.41-1.672.079-2.834.604-3.216 2.88-2.099 13.071-5.255 25.387-5.255z" fill="#7f7f7f"/><path d="M3.178 84.587c.241-.888-.816-2.071-1.372-2.853-.479-.674-.478-1.036-.214-.816.447.375 2.274 2.045 4.317 3.089 1.492.763 4.895 1.701 5.098 2.23.106.278-3.87-1.077-4.829-1.139-.4-.026-.925.767-.925.767s-2.3-.448-2.075-1.278zm47.176.769c.355-.274-1.516.167-1.325-.239.148-.314 1.282-1.08 2.144-1.903.67-.64 1.453-2.437 1.076-2.072-3.141 3.043-8.424 4.903-10.278 5.336-.471.109-.031.277.915.275 1.161-.003 2.685-.866 3.505-.687.366.08-.422 1.188-.053 1.122.66-.118 3.567-1.487 4.016-1.832z"/><path d="M52.744 5.258s-4.783 3.123-25.955 3.331C7.393 8.779 1.248 5.258 1.248 5.258v73.871s4.26 7.975 25.946 7.889c22.541-.09 25.55-7.889 25.55-7.889V5.258z" fill="#fff" stroke="#000" stroke-width=".7"/><path d="M52.516 5.604S48.013 8.392 26.841 8.6C7.445 8.79 1.565 5.528 1.565 5.528v27.933s3.995 5.22 25.681 5.145c25.715-.09 25.27-5.068 25.27-5.068V5.604z" fill="#d10f11"/><path d="M22.393 80.092c.107-.309.121-.576.042-.801a1.17 1.17 0 00-.4-.541c-.203-.158-.554-.25-.678-.274-.296-.057-.617-.039-.724-.008-.653.19-.871.642-.953.847a1.35 1.35 0 00-.089.656c.024.234.099.475.286.674.226.24.58.344.679.378.099.035.381.139.473.312.153.288.03.512-.057.58-.247.192-.523.004-.613-.079a.378.378 0 01-.116-.329 5.967 5.967 0 01-.483-.082 2.413 2.413 0 00-.492-.058l-.006.038c-.043.202-.029.387.027.561.143.44.562.697.738.787.175.089.355.151.542.182.297.049.64-.019.759-.056a.994.994 0 00.578-.492c.068-.103.227-.392.243-.686a2.245 2.245 0 00-.015-.357c-.045-.404-.356-.715-.531-.863a1.512 1.512 0 00-.594-.31c-.088-.026-.352-.065-.37-.423-.008-.165.125-.276.228-.301a.467.467 0 01.539.198c.061.087.07.186.027.297.142.064.299.106.469.125.171.019.332.027.485.024l.006.001zm3.948.271c.04-.752-.131-.921-.332-1.11a1.144 1.144 0 00-.406-.23c-.153-.055-.553-.172-.962-.091-.163.033-.464.066-.611.239-.146.173-.332.446-.395.959-.04.333-.052.666-.051.999v.994c0 .123.024.581.137.822.04.084.079.159.138.212.279.252.925.285 1.046.282a1.78 1.78 0 00.361-.049c.132-.028.593-.261.669-.36.081-.119.144-.253.188-.402.045-.148.116-.653.116-.653.027-.219.064-1.075.086-1.299.009-.105.011-.21.016-.313zm-.843 1.111l-.008.108c-.005.063-.025.524-.082.673-.086.225-.234.238-.329.266-.094.028-.459-.013-.537-.063a.463.463 0 01-.176-.205 2.426 2.426 0 01-.058-.444c-.008-.134.003-.81.014-.988.044-.672.259-.854.408-.967.149-.114.385-.069.468-.031.095.05.169.125.222.225.054.1.074.209.085.328.032.316-.007 1.098-.007 1.098zm4.934-2.49a1.008 1.008 0 00-.289-.048c-.082-.003-.594.082-.649.09.02.497.197 2.528.146 3.111a.415.415 0 01-.126.24c-.173.172-.398.093-.483.058-.408-.168-.422-2.324-.443-3.362l-.001-.007a2.489 2.489 0 00-.452-.015c-.081.003-.391.038-.455.042l-.006.001.006.006c.046.564.162 2.852.199 3.417.021.196.089.36.203.493.114.132.252.235.413.308.162.073.34.119.535.139.195.019.381.015.56-.014.306-.051.543-.18.71-.389.166-.208.258-.455.273-.74.024-.556.022-1.113-.006-1.672a26.403 26.403 0 00-.135-1.658zm4.366.766a1.212 1.212 0 00-.268-.776 1.413 1.413 0 00-.434-.376 1.677 1.677 0 00-.559-.187 3.072 3.072 0 00-.622-.03 3.786 3.786 0 00-1.185.271c.061.354.589 4.112.644 4.423a9.1 9.1 0 00.559-.052 4.641 4.641 0 00.52-.123c.002-.003.005-.004.01-.005l-.001-.006c-.051-.312-.232-1.551-.244-1.61.21.007.41-.03.6-.111a1.631 1.631 0 00.854-.825c.086-.186.131-.384.126-.593zm-1.573-.406c.349.009.484.168.531.207.123.101.151.415.065.527-.044.059-.219.161-.38.215-.148.05-.375.073-.443.086l-.019.003c-.03-.061-.174-.88-.188-.956.003-.005.289-.086.434-.082z" fill-rule="nonzero"/><path d="M52.479 8.164s-8.223 4.019-25.368 3.994C10.089 12.134 1.549 8.091 1.549 8.091l.033.571s7.478 4.2 25.528 4.3c17.703.098 25.39-4.123 25.39-4.123l-.021-.675z" fill="#705b2c"/><path d="M52.373 76.919s-5.772 7.502-25.188 7.586C7.487 84.589 1.55 76.919 1.55 76.919l.032.624s5.308 7.686 25.603 7.765c19.976.078 25.209-7.765 25.209-7.765l-.021-.624z" fill="#d10f11"/><use xlink:href="#prefix__a" x=".666" y=".666"/><use xlink:href="#prefix__a" fill="#fff"/><defs><path id="prefix__a" d="M39.393 26.115c-.632 1.234-1.48 2.348-2.094 2.383-.26.015-.414-.237-.438-.656-.042-.739.562-2.095 1.143-3.15.575-1.155.898-1.814.873-2.254-.043-.758-.622-1.426-1.201-1.393-.719.04-1.64.754-2.453 1.602a2.57 2.57 0 00-.003-.401 1.807 1.807 0 00-.313-.924c-.22-.348-.521-.351-.759.044-1.132 1.927-2.51 4.81-2.826 5.95a5.24 5.24 0 00-.093.485c-.588.691-1.209 1.182-1.631 1.176-.26-.004-.377-.206-.372-.566.005-.34.132-.758.338-1.175.497-1.153 1.476-2.458 1.868-3.273.248-.476.334-.895.339-1.275.007-.44-.128-.802-.324-1.045-.256-.303-.577-.248-.822.108-.755 1.049-1.193 2.243-2.441 4.144-1.045 1.645-2.084 2.89-2.643 2.882-.18-.003-.237-.204-.233-.484.004-.3.089-.659.235-1.036.414-.934.866-1.728 1.562-2.818.431-.733.68-1.33.687-1.81.004-.28-.11-.681-.346-.965-.275-.324-.535-.308-.781.049l-.756 1.068c-.633.891-1.566 1.757-2.468 1.904.098-1.219-.214-1.743-.608-2.169-.099-.102-.197-.183-.296-.305-.431-.586-.828-.792-1.508-.762-1.242.082-2.579 1.262-3.338 2.531-.534.892-.849 1.927-.861 2.767-.01.64.141 1.263.513 1.768.549.768 1.305 1.04 1.965 1.049 1.68.025 3.373-2.17 3.941-4.082.42.007.821-.068 1.223-.202-.247.457-.454.954-.6 1.352a4.446 4.446 0 00-.26 1.376c-.013.86.356 1.625 1.396 1.641.999.015 1.929-.632 2.6-1.342.107.842.678 1.47 1.818 1.487.66.01 1.376-.263 1.99-.694.078.125.174.236.287.338.338.301.591.166.712-.161.717-1.844 1.504-3.852 2.536-5.072 1.028-1.301 1.974-1.916 2.154-1.926.14-.008-.15.529-.532 1.212-.708 1.282-1.522 3.172-1.461 4.25.059 1.038.677 1.684 2.015 1.608.995-.057 2.127-.853 2.767-1.769l.042.056c.849 1.154 2.081 1.304 3.264 1.098 1.477-.267 2.759-1.214 3.317-2.706.271-.664.134-1.21.007-1.394-.183-.298-.5-.395-.614.086-.221 1.02-.684 1.752-1.418 2.42.157-.466.178-1.035.128-1.533-.11-1.075-.547-2.326-.744-3.733a11.033 11.033 0 01-.077-.837c.472-1.096.293-1.515-.242-1.44-.297.041-.634.23-.913.551-.402.441-.576.929-.556 1.654-.395.923-.945 2.05-1.468 3.073-.126-.467-.437-.525-.786-.133-.327.374-.46.867-.441 1.373zm-27.083.823c-.015 1.023.255 1.571.88 1.971.322.211.552.112.694-.116 1.466-2.574 4.354-7.025 5.64-8.752.711-.938.896-1.624.94-2.102a1.72 1.72 0 00-.106-.793c-.184-.399-.413-.521-.751-.131-1.507 1.928-3.764 5.232-5.385 7.953.354-2.277.727-4.331 1.157-5.918.093-.353.163-.668.189-.946.067-.717-.173-1.162-.729-1.656-.277-.266-.516-.289-.815.125-1.749 2.367-4.721 6.87-6.007 9.441-.198.404-.342.872-.37 1.171a1.87 1.87 0 00.274 1.15c.251.325.551.333.728-.052 1.105-2.367 2.776-4.983 4.418-7.28a45.5 45.5 0 00-.681 4.476c-.044.478-.062.878-.076 1.459zm6.066.732c.011-.74.327-1.835.861-2.767.39-.634.757-1.129 1.183-1.523.172.563.681 1.27 1.196 1.618a8.296 8.296 0 01-.682 1.47c-.78 1.349-1.65 2.056-2.15 2.049-.32-.005-.416-.287-.408-.847zm24.021.228c-.436.061-.949-.574-1.317-1.472.475-.935.91-1.864 1.28-2.683.115.529.223 1.16.312 1.794.18 1.287.14 2.302-.275 2.361zm-20.451-3.575c-.216-.263-.308-.785-.303-1.145.005-.32.187-.477.307-.475.14.002.298.124.294.424-.004.26-.091.739-.298 1.196zm20.031-7.195c.192-.425.316-.922.089-1.319-.2-.339-.536-.462-.859.059-.566.85-1.478 3.069-1.716 4.144-.05.267.05.437.313.447.223.014.497-.058.698-.403.441-.715 1.313-2.406 1.475-2.928z" fill-rule="nonzero"/></defs><g><path d="M52.477 33.76s-4.122 4.812-25.762 4.801c-19.466-.01-25.084-4.979-25.084-4.979v.723s5.952 4.898 25.068 4.967c21.02.077 25.778-4.789 25.778-4.789v-.723z" fill="#705b2c"/><circle cx="27.107" cy="38.532" r="5.924" fill="#705b2c"/><path d="M26.939 40.666h-2.043v2.031h.931v-1.051h1.112v-.98zm2.098 2.022v-2.022h-1.045v1.012h-1.057v1.01h2.102zm-3.129-5.164h-2.099v2.027h2.099v-2.027zm2.087 1.036v-1.036h-.983v2.027h3.106v-2.027H29.1v1.036h-1.105zm-3.064-4.104h-.003v1.984h.931v-1.046h1.112v-.983h-2.04v.045zm4.151 1.984l-.004-2.062-1.054-.007v1.054h-1.057v1.015h2.115z"/></g><g><path d="M26.738 0c12.284 0 23.419.435 26.426 2.515.745.516.432 1.658.432 2.072 0 2.547-12.19 4.645-26.858 4.645-14.668 0-25.477-2.26-26.577-4.616-.419-.897.052-1.737.588-1.942C3.688 1.548 14.17 0 26.738 0z"/><path d="M26.788.237c12.103 0 23.084.48 26.047 2.404.733.477.47 1.389.47 1.772 0 2.357-12.01 4.297-26.462 4.297S1.742 6.619.658 4.44c-.412-.83.08-1.406.608-1.596C4.161 1.802 14.406.237 26.788.237z" fill="#7f7f7f"/><path d="M.954 2.866c.156-.23.472-.309.472-.309l-.472.309c-.124.184-.147.463.171.875.39.506 1.851 1.25 7.059 2.36 4.159.886 9.685 1.111 18.564 1.366 8.841.254 21.29-1.254 25.452-2.952 1.492-.608 1.053-1.574 1.053-1.574s.25.277.247.623c-.004.427-.096.846-1.089 1.22-1.304.492-4.092 1.247-5.174 1.445-4.426.811-14.366 1.834-21.169 1.742C11.648 7.776 2.472 5.831.414 3.8c-.402-.396-.145-.314-.062-.525.005-.013.316-.22.602-.409zm50.867.538c.017-.092-.053-.177-.261-.236-3.227-.921-12.657-2.079-16.36-2.11-10.303-.086-20.127.807-21.732.917-.336.024-.68-.137-.66-.347.011-.114 1.175-.211 1.797-.359.473-.113.446-.297.446-.297s-1.998.136-3.515.32c-1.908.231-3.679.439-4.997.641a35.89 35.89 0 00-2.915.572c-.718.176-1.847.458-2.119.66-.197.148.255.478.49.555 1.209.392 4.45 1.509 6.766 1.802 4.16.527 12.119 1.37 18.197 1.361 6.077-.01 13.934-.756 18.268-1.418 2.685-.41 6.594-1.188 7.737-2.553.375-.449-1.993-1.129-1.993-1.129s2.34.675 1.305 1.354c-.14.092-.292.181-.454.267zM40.73 5.705c-1.315-.393-6.393-1.725-14.091-1.484-3.417.108-7.92.541-10.254 1.099-.347.083-.9.349-1.191.495 3.712.355 7.981.668 11.501.683 4.417.018 9.793-.366 14.035-.793zm5.252-.636a8.749 8.749 0 00-2.973-1.159c-3.978-.736-12.123-1.258-15.984-1.159-11.95.306-13.675 1.403-16.744 1.816-.429.057-1.11.376-1.457.55 1.042.129 2.367.285 3.86.444.707-.182 2.142-.539 2.986-.66 6.725-.964 8.875-1.068 12.743-1.087 5.808-.028 13.676 1.264 15.367 1.555.388-.047.757-.094 1.102-.139.355-.047.724-.101 1.1-.161zm3.139-.665a17.767 17.767 0 001.573-.501C48.71 2.798 38.937 1.362 34.803 1.41c-13.246.152-26.114 1.247-26.51 1.317-.764.135-4.623.478-4.584.87.026.26 1.398.733 2.807 1.084.164-.13.45-.335.654-.36 3.386-.409 7.082-1.515 19.533-1.989 6.207-.236 15.516.896 19.259 1.251 1.021.097 2.88.547 3.159.821z"/></g></svg></defs></svg>