<svg id="Layer_1" data-name="Layer 1" xmlns="http://www.w3.org/2000/svg" viewBox="0 0 435.25 240.41"><defs><style>.cls-1{fill:#fe618f;}.cls-2{fill:#fefefe;}.cls-3{fill:#ff8b4b;}.cls-4{fill:#22bcfb;}.cls-5{fill:#ff6190;}.cls-6{fill:#fff;}</style></defs><path class="cls-1" d="M416.31,181.44c0,12.14-.11,24.28.07,36.42.05,3.5-1.09,4.54-4.55,4.4-6.32-.27-12.67-.23-19,0-3.1.11-4-.92-3.93-4,.14-15.13-.06-30.26.15-45.39.05-3.8-.83-5.12-4.9-5-15,.25-30,.2-45,0-3.44,0-4.39.95-4.58,4.4a81.42,81.42,0,0,1-162.58.09c-.18-3.28-.82-4.68-4.46-4.5-6.15.31-12.33.29-18.48,0-3.55-.16-4.29,1.08-4.53,4.47-2.63,37.57-28,67.09-64.26,75.06C46.2,254.88,11.2,239.53-7,209.12c-17.52-29.3-14.26-67.64,7.94-93.6C40.69,69.05,114.6,80.41,138.39,136.71c1.32,3.13,2.8,4.22,6.17,4.13,9.32-.24,18.66-.21,28,0,3,.06,4.28-1.12,5.46-3.72,14.77-32.54,40.11-50.45,75.89-50.24,35.34.21,60.32,18.19,74.77,50.38,1.4,3.11,3.15,3.56,6,3.55,25.33-.08,50.65.09,76-.17,4.81,0,5.81,1.56,5.72,5.89C416.16,158.16,416.32,169.81,416.31,181.44Z" transform="translate(18.21 -86.62)"/><path d="M63,168c0,16.61-.09,33.22.08,49.83,0,3.51-.85,4.56-4.48,4.17-27-2.86-47.89-24-49.58-50.26a54.32,54.32,0,0,1,42-56.67c12-2.86,12-2.86,12,9.09Z" transform="translate(18.21 -86.62)"/><path d="M253.06,168.22c0,16.44-.09,32.87.08,49.31,0,3.63-.67,4.95-4.67,4.51-28.1-3.14-49.19-25.77-49.52-53.41-.34-27.92,20.3-51,48.59-54.72,4.36-.56,5.72.36,5.64,5C252.88,135.34,253.06,151.78,253.06,168.22Z" transform="translate(18.21 -86.62)"/><path class="cls-2" d="M253.8,167.7c0-16.6.1-33.2-.08-49.8,0-3.66,1.18-4.54,4.63-4.14,26.81,3.06,47.77,24.54,49.27,50.64,1.54,26.63-16.07,50.13-42.32,56.46-11.5,2.78-11.5,2.78-11.5-8.83Z" transform="translate(18.21 -86.62)"/><path class="cls-2" d="M63.75,167.39c0-16.29.13-32.59-.09-48.88-.06-4,1.09-5.24,5.08-4.71,27.92,3.65,47.94,25.35,48.9,53.16.9,26-19,50-45,54.31-8.84,1.47-8.84,1.47-8.84-7.5Z" transform="translate(18.21 -86.62)"/><rect class="cls-3" x="91.18" y="219.1" width="40.77" height="20.17"/><rect class="cls-4" x="0.53" y="219.1" width="40.77" height="20.17"/><rect class="cls-5" x="113.61" y="296.24" width="40.77" height="20.17" transform="translate(458.53 85.71) rotate(90)"/><rect class="cls-3" x="71.12" y="199.32" width="40.12" height="19.74"/><rect class="cls-4" x="20.91" y="199.32" width="40.12" height="19.74"/><rect class="cls-5" x="182.35" y="220.67" width="40.12" height="19.74"/><rect class="cls-6" x="292.34" y="220.67" width="40.12" height="19.74"/><rect class="cls-6" x="395.12" y="220.35" width="40.12" height="19.74"/><rect class="cls-6" x="354.57" y="200.29" width="40.12" height="19.74"/><rect class="cls-5" x="142.23" y="199.32" width="40.12" height="19.74"/><rect class="cls-5" x="174.79" y="297.09" width="40.12" height="19.74" transform="translate(520.03 25.5) rotate(90)"/><rect class="cls-6" x="255.25" y="297.09" width="40.12" height="19.74" transform="translate(600.49 -54.97) rotate(90)"/><rect class="cls-6" x="296.13" y="297.09" width="40.12" height="19.74" transform="translate(641.37 -95.84) rotate(90)"/><rect class="cls-6" x="387.11" y="296.77" width="40.12" height="19.74" transform="translate(732.02 -187.14) rotate(90)"/><rect class="cls-6" x="325.53" y="297.09" width="40.12" height="19.74" transform="translate(670.76 -125.24) rotate(90)"/><rect class="cls-6" x="215.24" y="286.9" width="40.12" height="40.12" transform="translate(560.47 -14.95) rotate(90)"/></svg>